<?xml version="1.0" encoding="utf-8"?>
<!-- Generator: Adobe Illustrator 24.3.0, SVG Export Plug-In . SVG Version: 6.00 Build 0)  -->
<svg version="1.1" id="Layer_1" xmlns="http://www.w3.org/2000/svg" xmlns:xlink="http://www.w3.org/1999/xlink" x="0px" y="0px"
	 viewBox="0 0 1400 1200" style="enable-background:new 0 0 1400 1200;" xml:space="preserve">
<style type="text/css">
	.st0{fill:none;stroke:#2B3990;stroke-width:10;stroke-miterlimit:10;}
	.st1{fill:none;stroke:#27AAE1;stroke-width:17;stroke-miterlimit:10;}
	.st2{fill:#2E3192;}
	.st3{fill:#00AEEF;}
	.st4{fill:#FFFFFF;}
</style>
<g>
	<path class="st0" d="M847.3,435.5c61-1,110.8,16.4,111.2,38.8c0.4,22.4-48.8,41.4-109.9,42.3"/>
	<path class="st1" d="M525.7,415.2C526.6,330.1,609,262,709.8,263s181.8,70.9,180.9,156"/>
	<path class="st0" d="M550.4,516.7c-61-0.4-110.4-18.9-110.2-41.3c0.2-22.4,49.8-40.3,110.8-39.8"/>
	<path class="st1" d="M894,532.5c1.2,77.8-79.6,142.1-180.4,143.6S530.2,615.8,529,538"/>
	<polygon class="st2" points="707.2,303.6 739.6,390.2 827.1,350.8 785.5,433.7 876.8,464.5 785.5,495.3 827.1,578.3 739.6,538.8 
		707.2,625.4 674.7,538.8 587.3,578.3 628.9,495.3 537.6,464.5 628.9,433.7 587.3,350.8 674.7,390.2 	"/>
	<g>
		<circle class="st3" cx="707" cy="468.2" r="73.2"/>
		<g>
			<path class="st4" d="M648.3,508.6v-3.5l17.3-1.5h4.4l22.4,1.5v3.5H648.3z M741.6,509l-73-68.7l-0.5-0.3l-5.6-5.4l-13.6-0.8v-3.5
				h36.2l65,61.4l-3.1,0.7l-0.5-31.4v-30.7h6.7V509H741.6z M664.2,508.6v-75.3h6.2L672,481v27.6H664.2z M725.2,433.8v-3.5h44.2v3.5
				l-17.1,1.5h-4.4L725.2,433.8z"/>
		</g>
	</g>
	<g>
		<path class="st2" d="M463.9,784.9c-4.5,0-8.8-0.4-13.1-1.1c-4.2-0.8-8-1.8-11.3-3.2l2-15c4.1,1.7,8.1,3,12.1,3.9
			c4,0.9,7.7,1.4,11.1,1.4c4,0,7-0.7,9.1-2.1c2.1-1.4,3.2-3.4,3.2-6.1c0-3.4-2.2-6.2-6.5-8.2l-11.3-5.5c-5.6-2.7-9.9-6.1-13-10.2
			c-3.1-4-4.6-8.5-4.6-13.4c0-6.9,2.3-12.2,6.8-16c4.6-3.8,11-5.7,19.3-5.7c4.9,0,9.5,0.9,13.8,2.6c4.4,1.7,8.2,4.2,11.6,7.4
			l-10.1,11.6c-2.6-2.4-5.1-4.3-7.7-5.6c-2.6-1.3-5.1-2-7.5-2c-3.3,0-5.8,0.7-7.6,2.1c-1.8,1.4-2.7,3.4-2.7,6c0,1.7,0.6,3.4,1.9,4.9
			c1.3,1.6,3.1,3,5.5,4.2l10.7,5.5c5.6,2.9,9.8,6.3,12.9,10.1c3,3.9,4.5,8,4.5,12.4c0,7-2.5,12.4-7.6,16.2
			C480.4,783,473.2,784.9,463.9,784.9z"/>
		<path class="st2" d="M533.3,784.9c-20,0-30.1-13.3-30.1-40c0-27.4,10-41.1,30.1-41.1c20,0,30.1,13.7,30.1,41.1
			C563.4,771.5,553.3,784.9,533.3,784.9z M533.3,770.9c9.8,0,14.7-8.7,14.7-26c0-18.1-4.9-27.1-14.7-27.1c-9.8,0-14.7,9-14.7,27.1
			C518.6,762.2,523.5,770.9,533.3,770.9z"/>
		<path class="st2" d="M575.7,783.8v-78.9h14.7v78.9H575.7z M575.7,718.4v-13.5h54.1v13.5H575.7z M575.7,754.4v-13.6h43.2v13.6
			H575.7z"/>
		<path class="st2" d="M636.8,718.4v-13.5h59.7v13.5H636.8z M659.3,783.8v-78.9H674v78.9H659.3z"/>
		<path class="st2" d="M707.3,783.8v-78.9h14.1v78.9H707.3z M737.3,783.8l-13.9-61.7h-6.1v-17.2h11.9l13.9,61.7h3.7v17.2H737.3z
			 M745.3,783.8v-78.9h14.1v78.9H745.3z"/>
		<path class="st2" d="M800,784.9c-20,0-30.1-13.3-30.1-40c0-27.4,10-41.1,30.1-41.1c20,0,30.1,13.7,30.1,41.1
			C830.1,771.5,820.1,784.9,800,784.9z M800,770.9c9.8,0,14.7-8.7,14.7-26c0-18.1-4.9-27.1-14.7-27.1s-14.7,9-14.7,27.1
			C785.4,762.2,790.2,770.9,800,770.9z"/>
		<path class="st2" d="M855.3,783.8l-20.4-78.9h15.2l16.1,65.7h1l16.1-65.7h15.2l-20.4,78.9H855.3z"/>
		<path class="st2" d="M901.6,783.8l22.8-78.9h18l22.8,78.9h-15.8l-15.4-59.6h-1l-15.4,59.6H901.6z M913.1,768.8v-13.6h40v13.6
			H913.1z"/>
		<path class="st3" d="M625.3,893v-63.1h11.7V893H625.3z M625.3,893v-10.8h43.3V893H625.3z"/>
		<path class="st3" d="M673.6,893l18.2-63.1h14.4l18.2,63.1h-12.7l-12.4-47.7h-0.8L686.2,893H673.6z M682.8,881v-10.8h32V881H682.8z
			"/>
		<path class="st3" d="M732,893v-63.1h11.7V893H732z M740.1,862v-4.4h17.5v4.4H740.1z M743.1,859v-4.7h8.6c2.8,0,4.8-0.6,6.2-1.8
			c1.4-1.2,2.1-3,2.1-5.3c0-2.1-0.7-3.7-2.2-4.8c-1.5-1.1-3.7-1.6-6.7-1.6h-7.8l-1.1-10.8h9.3c6.6,0,11.8,1.4,15.4,4.1
			c3.6,2.7,5.4,6.6,5.4,11.6c0,4.3-1.4,7.6-4.2,9.9c-2.8,2.3-6.8,3.5-12,3.5H743.1z M743.1,893v-10.8h11.2c3.2,0,5.7-0.8,7.5-2.3
			c1.8-1.5,2.7-3.6,2.7-6.4c0-2.7-0.9-4.8-2.8-6.3c-1.9-1.5-4.5-2.2-8-2.2h-10.4l-1.1-4.7h17.4c5.5,0,9.7,1.3,12.7,4
			c3,2.7,4.5,6.4,4.5,11.3c0,5.5-1.7,9.8-5.2,12.8c-3.5,3-8.4,4.5-14.7,4.5H743.1z"/>
		<path class="st3" d="M803.5,893.9c-3.6,0-7.1-0.3-10.4-0.9c-3.4-0.6-6.4-1.5-9.1-2.6l1.6-12c3.3,1.4,6.5,2.4,9.7,3.2
			c3.2,0.7,6.2,1.1,8.9,1.1c3.2,0,5.6-0.6,7.3-1.7c1.7-1.1,2.5-2.7,2.5-4.8c0-2.8-1.7-4.9-5.2-6.6l-9.1-4.4
			c-4.5-2.2-7.9-4.9-10.4-8.1c-2.5-3.2-3.7-6.8-3.7-10.7c0-5.5,1.8-9.8,5.5-12.8c3.6-3,8.8-4.5,15.5-4.5c3.9,0,7.6,0.7,11,2
			c3.5,1.4,6.6,3.3,9.3,5.9l-8.1,9.3c-2-2-4.1-3.5-6.2-4.5c-2.1-1.1-4.1-1.6-6-1.6c-2.6,0-4.6,0.6-6.1,1.7c-1.5,1.1-2.2,2.7-2.2,4.8
			c0,1.4,0.5,2.7,1.5,4c1,1.2,2.5,2.4,4.4,3.4l8.5,4.4c4.4,2.3,7.9,5,10.3,8.1c2.4,3.1,3.6,6.4,3.6,9.9c0,5.6-2,9.9-6,13
			C816.7,892.4,810.9,893.9,803.5,893.9z"/>
	</g>
</g>
</svg>
